<?xml version="1.0" encoding="UTF-8" standalone="no"?>
<!DOCTYPE svg PUBLIC "-//W3C//DTD SVG 1.1//EN"
 "http://www.w3.org/Graphics/SVG/1.1/DTD/svg11.dtd">
<!-- Generated by graphviz version 2.40.1 (20161225.0304)
 -->
<!-- Title: dependencies Pages: 1 -->
<svg width="504pt" height="284pt"
 viewBox="0.00 0.00 504.00 284.00" xmlns="http://www.w3.org/2000/svg" xmlns:xlink="http://www.w3.org/1999/xlink">
<g id="graph0" class="graph" transform="scale(1 1) rotate(0) translate(4 280)">
<title>dependencies</title>
<polygon fill="#ffffff" stroke="transparent" points="-4,4 -4,-280 500,-280 500,4 -4,4"/>
<text text-anchor="start" x="227.0091" y="-42.4" font-family="sans-serif" font-weight="bold" font-size="14.00" fill="#000000">Legend</text>
<polygon fill="#ffffb3" stroke="transparent" points="14,-10 14,-30 34,-30 34,-10 14,-10"/>
<text text-anchor="start" x="37.629" y="-15.4" font-family="sans-serif" font-size="14.00" fill="#000000"> &#160;Declarations</text>
<polygon fill="#8dd3c7" stroke="transparent" points="127,-10 127,-30 147,-30 147,-10 127,-10"/>
<text text-anchor="start" x="150.7251" y="-15.4" font-family="sans-serif" font-size="14.00" fill="#000000"> &#160;Module</text>
<polygon fill="#80b1d3" stroke="transparent" points="213,-10 213,-30 233,-30 233,-10 213,-10"/>
<text text-anchor="start" x="236.7812" y="-15.4" font-family="sans-serif" font-size="14.00" fill="#000000"> &#160;Bootstrap</text>
<polygon fill="#fdb462" stroke="transparent" points="310,-10 310,-30 330,-30 330,-10 310,-10"/>
<text text-anchor="start" x="333.6732" y="-15.4" font-family="sans-serif" font-size="14.00" fill="#000000"> &#160;Providers</text>
<polygon fill="#fb8072" stroke="transparent" points="406,-10 406,-30 426,-30 426,-10 406,-10"/>
<text text-anchor="start" x="429.7258" y="-15.4" font-family="sans-serif" font-size="14.00" fill="#000000"> &#160;Exports</text>
<g id="clust1" class="cluster">
<title>cluster_UserInsuranceModule</title>
<polygon fill="none" stroke="#000000" stroke-dasharray="1,5" points="69,-70 69,-268 427,-268 427,-70 69,-70"/>
</g>
<g id="clust3" class="cluster">
<title>cluster_UserInsuranceModule_imports</title>
<polygon fill="none" stroke="#000000" points="293,-78 293,-130 419,-130 419,-78 293,-78"/>
</g>
<g id="clust4" class="cluster">
<title>cluster_UserInsuranceModule_exports</title>
<polygon fill="none" stroke="#000000" points="181,-208 181,-260 339,-260 339,-208 181,-208"/>
</g>
<g id="clust6" class="cluster">
<title>cluster_UserInsuranceModule_providers</title>
<polygon fill="none" stroke="#000000" points="77,-78 77,-130 285,-130 285,-78 77,-78"/>
</g>
<!-- DatabaseModule -->
<g id="node1" class="node">
<title>DatabaseModule</title>
<polygon fill="#8dd3c7" stroke="#000000" points="411.3501,-122 408.3501,-126 387.3501,-126 384.3501,-122 300.6499,-122 300.6499,-86 411.3501,-86 411.3501,-122"/>
<text text-anchor="middle" x="356" y="-99.8" font-family="Times,serif" font-size="14.00" fill="#000000">DatabaseModule</text>
</g>
<!-- UserInsuranceModule -->
<g id="node2" class="node">
<title>UserInsuranceModule</title>
<polygon fill="#8dd3c7" stroke="#000000" points="330.3863,-187 327.3863,-191 306.3863,-191 303.3863,-187 189.6137,-187 189.6137,-151 330.3863,-151 330.3863,-187"/>
<text text-anchor="middle" x="260" y="-164.8" font-family="Times,serif" font-size="14.00" fill="#000000">UserInsuranceModule</text>
</g>
<!-- DatabaseModule&#45;&gt;UserInsuranceModule -->
<g id="edge1" class="edge">
<title>DatabaseModule&#45;&gt;UserInsuranceModule</title>
<path fill="none" stroke="#000000" d="M315.384,-122.1061C315.384,-122.1061 315.384,-140.991 315.384,-140.991"/>
<polygon fill="#000000" stroke="#000000" points="311.884,-140.9909 315.384,-150.991 318.884,-140.991 311.884,-140.9909"/>
</g>
<!-- UserInsuranceService  -->
<g id="node3" class="node">
<title>UserInsuranceService </title>
<polygon fill="#fb8072" stroke="#000000" points="331.3139,-252 188.6861,-252 188.6861,-216 331.3139,-216 331.3139,-252"/>
<text text-anchor="middle" x="260" y="-229.8" font-family="Times,serif" font-size="14.00" fill="#000000">UserInsuranceService </text>
</g>
<!-- UserInsuranceModule&#45;&gt;UserInsuranceService  -->
<g id="edge2" class="edge">
<title>UserInsuranceModule&#45;&gt;UserInsuranceService </title>
<path fill="none" stroke="#000000" stroke-dasharray="5,2" d="M260,-187.1061C260,-187.1061 260,-205.991 260,-205.991"/>
<polygon fill="#000000" stroke="#000000" points="256.5001,-205.9909 260,-215.991 263.5001,-205.991 256.5001,-205.9909"/>
</g>
<!-- UserInsuranceService -->
<g id="node4" class="node">
<title>UserInsuranceService</title>
<ellipse fill="#fdb462" stroke="#000000" cx="181" cy="-104" rx="95.5028" ry="18"/>
<text text-anchor="middle" x="181" y="-99.8" font-family="Times,serif" font-size="14.00" fill="#000000">UserInsuranceService</text>
</g>
<!-- UserInsuranceService&#45;&gt;UserInsuranceModule -->
<g id="edge3" class="edge">
<title>UserInsuranceService&#45;&gt;UserInsuranceModule</title>
<path fill="none" stroke="#000000" d="M233.2791,-119.4041C233.2791,-119.4041 233.2791,-140.9397 233.2791,-140.9397"/>
<polygon fill="#000000" stroke="#000000" points="229.7792,-140.9397 233.2791,-150.9397 236.7792,-140.9398 229.7792,-140.9397"/>
</g>
</g>
</svg>
