<?xml version="1.0" encoding="UTF-8" standalone="no"?>
<!DOCTYPE svg PUBLIC "-//W3C//DTD SVG 1.1//EN"
 "http://www.w3.org/Graphics/SVG/1.1/DTD/svg11.dtd">
<!-- Generated by graphviz version 2.40.1 (20161225.0304)
 -->
<!-- Title: dependencies Pages: 1 -->
<svg width="504pt" height="284pt"
 viewBox="0.00 0.00 504.00 284.00" xmlns="http://www.w3.org/2000/svg" xmlns:xlink="http://www.w3.org/1999/xlink">
<g id="graph0" class="graph" transform="scale(1 1) rotate(0) translate(4 280)">
<title>dependencies</title>
<polygon fill="#ffffff" stroke="transparent" points="-4,4 -4,-280 500,-280 500,4 -4,4"/>
<text text-anchor="start" x="227.0091" y="-42.4" font-family="sans-serif" font-weight="bold" font-size="14.00" fill="#000000">Legend</text>
<polygon fill="#ffffb3" stroke="transparent" points="14,-10 14,-30 34,-30 34,-10 14,-10"/>
<text text-anchor="start" x="37.629" y="-15.4" font-family="sans-serif" font-size="14.00" fill="#000000"> &#160;Declarations</text>
<polygon fill="#8dd3c7" stroke="transparent" points="127,-10 127,-30 147,-30 147,-10 127,-10"/>
<text text-anchor="start" x="150.7251" y="-15.4" font-family="sans-serif" font-size="14.00" fill="#000000"> &#160;Module</text>
<polygon fill="#80b1d3" stroke="transparent" points="213,-10 213,-30 233,-30 233,-10 213,-10"/>
<text text-anchor="start" x="236.7812" y="-15.4" font-family="sans-serif" font-size="14.00" fill="#000000"> &#160;Bootstrap</text>
<polygon fill="#fdb462" stroke="transparent" points="310,-10 310,-30 330,-30 330,-10 310,-10"/>
<text text-anchor="start" x="333.6732" y="-15.4" font-family="sans-serif" font-size="14.00" fill="#000000"> &#160;Providers</text>
<polygon fill="#fb8072" stroke="transparent" points="406,-10 406,-30 426,-30 426,-10 406,-10"/>
<text text-anchor="start" x="429.7258" y="-15.4" font-family="sans-serif" font-size="14.00" fill="#000000"> &#160;Exports</text>
<g id="clust1" class="cluster">
<title>cluster_ViewsModule</title>
<polygon fill="none" stroke="#000000" stroke-dasharray="1,5" points="100,-70 100,-268 396,-268 396,-70 100,-70"/>
</g>
<g id="clust3" class="cluster">
<title>cluster_ViewsModule_imports</title>
<polygon fill="none" stroke="#000000" points="262,-78 262,-130 388,-130 388,-78 262,-78"/>
</g>
<g id="clust4" class="cluster">
<title>cluster_ViewsModule_exports</title>
<polygon fill="none" stroke="#000000" points="196,-208 196,-260 310,-260 310,-208 196,-208"/>
</g>
<g id="clust6" class="cluster">
<title>cluster_ViewsModule_providers</title>
<polygon fill="none" stroke="#000000" points="108,-78 108,-130 254,-130 254,-78 108,-78"/>
</g>
<!-- DatabaseModule -->
<g id="node1" class="node">
<title>DatabaseModule</title>
<polygon fill="#8dd3c7" stroke="#000000" points="380.3501,-122 377.3501,-126 356.3501,-126 353.3501,-122 269.6499,-122 269.6499,-86 380.3501,-86 380.3501,-122"/>
<text text-anchor="middle" x="325" y="-99.8" font-family="Times,serif" font-size="14.00" fill="#000000">DatabaseModule</text>
</g>
<!-- ViewsModule -->
<g id="node2" class="node">
<title>ViewsModule</title>
<polygon fill="#8dd3c7" stroke="#000000" points="300.8133,-187 297.8133,-191 276.8133,-191 273.8133,-187 205.1867,-187 205.1867,-151 300.8133,-151 300.8133,-187"/>
<text text-anchor="middle" x="253" y="-164.8" font-family="Times,serif" font-size="14.00" fill="#000000">ViewsModule</text>
</g>
<!-- DatabaseModule&#45;&gt;ViewsModule -->
<g id="edge1" class="edge">
<title>DatabaseModule&#45;&gt;ViewsModule</title>
<path fill="none" stroke="#000000" d="M285.1157,-122.1061C285.1157,-122.1061 285.1157,-140.991 285.1157,-140.991"/>
<polygon fill="#000000" stroke="#000000" points="281.6158,-140.9909 285.1157,-150.991 288.6158,-140.991 281.6158,-140.9909"/>
</g>
<!-- ViewsService  -->
<g id="node3" class="node">
<title>ViewsService </title>
<polygon fill="#fb8072" stroke="#000000" points="301.7409,-252 204.2591,-252 204.2591,-216 301.7409,-216 301.7409,-252"/>
<text text-anchor="middle" x="253" y="-229.8" font-family="Times,serif" font-size="14.00" fill="#000000">ViewsService </text>
</g>
<!-- ViewsModule&#45;&gt;ViewsService  -->
<g id="edge2" class="edge">
<title>ViewsModule&#45;&gt;ViewsService </title>
<path fill="none" stroke="#000000" stroke-dasharray="5,2" d="M253,-187.1061C253,-187.1061 253,-205.991 253,-205.991"/>
<polygon fill="#000000" stroke="#000000" points="249.5001,-205.9909 253,-215.991 256.5001,-205.991 249.5001,-205.9909"/>
</g>
<!-- ViewsService -->
<g id="node4" class="node">
<title>ViewsService</title>
<ellipse fill="#fdb462" stroke="#000000" cx="181" cy="-104" rx="64.8215" ry="18"/>
<text text-anchor="middle" x="181" y="-99.8" font-family="Times,serif" font-size="14.00" fill="#000000">ViewsService</text>
</g>
<!-- ViewsService&#45;&gt;ViewsModule -->
<g id="edge3" class="edge">
<title>ViewsService&#45;&gt;ViewsModule</title>
<path fill="none" stroke="#000000" d="M225.5021,-117.1537C225.5021,-117.1537 225.5021,-140.6938 225.5021,-140.6938"/>
<polygon fill="#000000" stroke="#000000" points="222.0022,-140.6938 225.5021,-150.6938 229.0022,-140.6939 222.0022,-140.6938"/>
</g>
</g>
</svg>
