<?xml version="1.0" encoding="UTF-8" standalone="no"?>
<!DOCTYPE svg PUBLIC "-//W3C//DTD SVG 1.1//EN"
 "http://www.w3.org/Graphics/SVG/1.1/DTD/svg11.dtd">
<!-- Generated by graphviz version 2.40.1 (20161225.0304)
 -->
<!-- Title: dependencies Pages: 1 -->
<svg width="504pt" height="284pt"
 viewBox="0.00 0.00 504.00 284.00" xmlns="http://www.w3.org/2000/svg" xmlns:xlink="http://www.w3.org/1999/xlink">
<g id="graph0" class="graph" transform="scale(1 1) rotate(0) translate(4 280)">
<title>dependencies</title>
<polygon fill="#ffffff" stroke="transparent" points="-4,4 -4,-280 500,-280 500,4 -4,4"/>
<text text-anchor="start" x="227.0091" y="-42.4" font-family="sans-serif" font-weight="bold" font-size="14.00" fill="#000000">Legend</text>
<polygon fill="#ffffb3" stroke="transparent" points="14,-10 14,-30 34,-30 34,-10 14,-10"/>
<text text-anchor="start" x="37.629" y="-15.4" font-family="sans-serif" font-size="14.00" fill="#000000"> &#160;Declarations</text>
<polygon fill="#8dd3c7" stroke="transparent" points="127,-10 127,-30 147,-30 147,-10 127,-10"/>
<text text-anchor="start" x="150.7251" y="-15.4" font-family="sans-serif" font-size="14.00" fill="#000000"> &#160;Module</text>
<polygon fill="#80b1d3" stroke="transparent" points="213,-10 213,-30 233,-30 233,-10 213,-10"/>
<text text-anchor="start" x="236.7812" y="-15.4" font-family="sans-serif" font-size="14.00" fill="#000000"> &#160;Bootstrap</text>
<polygon fill="#fdb462" stroke="transparent" points="310,-10 310,-30 330,-30 330,-10 310,-10"/>
<text text-anchor="start" x="333.6732" y="-15.4" font-family="sans-serif" font-size="14.00" fill="#000000"> &#160;Providers</text>
<polygon fill="#fb8072" stroke="transparent" points="406,-10 406,-30 426,-30 426,-10 406,-10"/>
<text text-anchor="start" x="429.7258" y="-15.4" font-family="sans-serif" font-size="14.00" fill="#000000"> &#160;Exports</text>
<g id="clust1" class="cluster">
<title>cluster_UserModule</title>
<polygon fill="none" stroke="#000000" stroke-dasharray="1,5" points="51.5,-70 51.5,-268 444.5,-268 444.5,-70 51.5,-70"/>
</g>
<g id="clust3" class="cluster">
<title>cluster_UserModule_imports</title>
<polygon fill="none" stroke="#000000" points="199.5,-78 199.5,-130 436.5,-130 436.5,-78 199.5,-78"/>
</g>
<g id="clust4" class="cluster">
<title>cluster_UserModule_exports</title>
<polygon fill="none" stroke="#000000" points="201.5,-208 201.5,-260 305.5,-260 305.5,-208 201.5,-208"/>
</g>
<g id="clust6" class="cluster">
<title>cluster_UserModule_providers</title>
<polygon fill="none" stroke="#000000" points="59.5,-78 59.5,-130 191.5,-130 191.5,-78 59.5,-78"/>
</g>
<!-- DatabaseModule -->
<g id="node1" class="node">
<title>DatabaseModule</title>
<polygon fill="#8dd3c7" stroke="#000000" points="428.8501,-122 425.8501,-126 404.8501,-126 401.8501,-122 318.1499,-122 318.1499,-86 428.8501,-86 428.8501,-122"/>
<text text-anchor="middle" x="373.5" y="-99.8" font-family="Times,serif" font-size="14.00" fill="#000000">DatabaseModule</text>
</g>
<!-- UserModule -->
<g id="node3" class="node">
<title>UserModule</title>
<polygon fill="#8dd3c7" stroke="#000000" points="296.4762,-187 293.4762,-191 272.4762,-191 269.4762,-187 210.5238,-187 210.5238,-151 296.4762,-151 296.4762,-187"/>
<text text-anchor="middle" x="253.5" y="-164.8" font-family="Times,serif" font-size="14.00" fill="#000000">UserModule</text>
</g>
<!-- DatabaseModule&#45;&gt;UserModule -->
<g id="edge1" class="edge">
<title>DatabaseModule&#45;&gt;UserModule</title>
<path fill="none" stroke="#000000" d="M373.5,-122.1061C373.5,-141.3391 373.5,-169 373.5,-169 373.5,-169 306.4838,-169 306.4838,-169"/>
<polygon fill="#000000" stroke="#000000" points="306.4838,-165.5001 296.4838,-169 306.4838,-172.5001 306.4838,-165.5001"/>
</g>
<!-- ExamModule -->
<g id="node2" class="node">
<title>ExamModule</title>
<polygon fill="#8dd3c7" stroke="#000000" points="299.7078,-122 296.7078,-126 275.7078,-126 272.7078,-122 207.2922,-122 207.2922,-86 299.7078,-86 299.7078,-122"/>
<text text-anchor="middle" x="253.5" y="-99.8" font-family="Times,serif" font-size="14.00" fill="#000000">ExamModule</text>
</g>
<!-- ExamModule&#45;&gt;UserModule -->
<g id="edge2" class="edge">
<title>ExamModule&#45;&gt;UserModule</title>
<path fill="none" stroke="#000000" d="M253.5,-122.1061C253.5,-122.1061 253.5,-140.991 253.5,-140.991"/>
<polygon fill="#000000" stroke="#000000" points="250.0001,-140.9909 253.5,-150.991 257.0001,-140.991 250.0001,-140.9909"/>
</g>
<!-- UserService  -->
<g id="node4" class="node">
<title>UserService </title>
<polygon fill="#fb8072" stroke="#000000" points="297.4041,-252 209.5959,-252 209.5959,-216 297.4041,-216 297.4041,-252"/>
<text text-anchor="middle" x="253.5" y="-229.8" font-family="Times,serif" font-size="14.00" fill="#000000">UserService </text>
</g>
<!-- UserModule&#45;&gt;UserService  -->
<g id="edge3" class="edge">
<title>UserModule&#45;&gt;UserService </title>
<path fill="none" stroke="#000000" stroke-dasharray="5,2" d="M253.5,-187.1061C253.5,-187.1061 253.5,-205.991 253.5,-205.991"/>
<polygon fill="#000000" stroke="#000000" points="250.0001,-205.9909 253.5,-215.991 257.0001,-205.991 250.0001,-205.9909"/>
</g>
<!-- UserService -->
<g id="node5" class="node">
<title>UserService</title>
<ellipse fill="#fdb462" stroke="#000000" cx="125.5" cy="-104" rx="58.4415" ry="18"/>
<text text-anchor="middle" x="125.5" y="-99.8" font-family="Times,serif" font-size="14.00" fill="#000000">UserService</text>
</g>
<!-- UserService&#45;&gt;UserModule -->
<g id="edge4" class="edge">
<title>UserService&#45;&gt;UserModule</title>
<path fill="none" stroke="#000000" d="M125.5,-122.1061C125.5,-141.3391 125.5,-169 125.5,-169 125.5,-169 200.5218,-169 200.5218,-169"/>
<polygon fill="#000000" stroke="#000000" points="200.5218,-172.5001 210.5218,-169 200.5217,-165.5001 200.5218,-172.5001"/>
</g>
</g>
</svg>
