<?xml version="1.0" encoding="UTF-8" standalone="no"?>
<!DOCTYPE svg PUBLIC "-//W3C//DTD SVG 1.1//EN"
 "http://www.w3.org/Graphics/SVG/1.1/DTD/svg11.dtd">
<!-- Generated by graphviz version 2.40.1 (20161225.0304)
 -->
<!-- Title: dependencies Pages: 1 -->
<svg width="504pt" height="284pt"
 viewBox="0.00 0.00 504.00 284.00" xmlns="http://www.w3.org/2000/svg" xmlns:xlink="http://www.w3.org/1999/xlink">
<g id="graph0" class="graph" transform="scale(1 1) rotate(0) translate(4 280)">
<title>dependencies</title>
<polygon fill="#ffffff" stroke="transparent" points="-4,4 -4,-280 500,-280 500,4 -4,4"/>
<text text-anchor="start" x="227.0091" y="-42.4" font-family="sans-serif" font-weight="bold" font-size="14.00" fill="#000000">Legend</text>
<polygon fill="#ffffb3" stroke="transparent" points="14,-10 14,-30 34,-30 34,-10 14,-10"/>
<text text-anchor="start" x="37.629" y="-15.4" font-family="sans-serif" font-size="14.00" fill="#000000"> &#160;Declarations</text>
<polygon fill="#8dd3c7" stroke="transparent" points="127,-10 127,-30 147,-30 147,-10 127,-10"/>
<text text-anchor="start" x="150.7251" y="-15.4" font-family="sans-serif" font-size="14.00" fill="#000000"> &#160;Module</text>
<polygon fill="#80b1d3" stroke="transparent" points="213,-10 213,-30 233,-30 233,-10 213,-10"/>
<text text-anchor="start" x="236.7812" y="-15.4" font-family="sans-serif" font-size="14.00" fill="#000000"> &#160;Bootstrap</text>
<polygon fill="#fdb462" stroke="transparent" points="310,-10 310,-30 330,-30 330,-10 310,-10"/>
<text text-anchor="start" x="333.6732" y="-15.4" font-family="sans-serif" font-size="14.00" fill="#000000"> &#160;Providers</text>
<polygon fill="#fb8072" stroke="transparent" points="406,-10 406,-30 426,-30 426,-10 406,-10"/>
<text text-anchor="start" x="429.7258" y="-15.4" font-family="sans-serif" font-size="14.00" fill="#000000"> &#160;Exports</text>
<g id="clust1" class="cluster">
<title>cluster_ProfileModule</title>
<polygon fill="none" stroke="#000000" stroke-dasharray="1,5" points="99,-70 99,-268 397,-268 397,-70 99,-70"/>
</g>
<g id="clust3" class="cluster">
<title>cluster_ProfileModule_imports</title>
<polygon fill="none" stroke="#000000" points="263,-78 263,-130 389,-130 389,-78 263,-78"/>
</g>
<g id="clust4" class="cluster">
<title>cluster_ProfileModule_exports</title>
<polygon fill="none" stroke="#000000" points="195,-208 195,-260 311,-260 311,-208 195,-208"/>
</g>
<g id="clust6" class="cluster">
<title>cluster_ProfileModule_providers</title>
<polygon fill="none" stroke="#000000" points="107,-78 107,-130 255,-130 255,-78 107,-78"/>
</g>
<!-- DatabaseModule -->
<g id="node1" class="node">
<title>DatabaseModule</title>
<polygon fill="#8dd3c7" stroke="#000000" points="381.3501,-122 378.3501,-126 357.3501,-126 354.3501,-122 270.6499,-122 270.6499,-86 381.3501,-86 381.3501,-122"/>
<text text-anchor="middle" x="326" y="-99.8" font-family="Times,serif" font-size="14.00" fill="#000000">DatabaseModule</text>
</g>
<!-- ProfileModule -->
<g id="node2" class="node">
<title>ProfileModule</title>
<polygon fill="#8dd3c7" stroke="#000000" points="301.65,-187 298.65,-191 277.65,-191 274.65,-187 204.35,-187 204.35,-151 301.65,-151 301.65,-187"/>
<text text-anchor="middle" x="253" y="-164.8" font-family="Times,serif" font-size="14.00" fill="#000000">ProfileModule</text>
</g>
<!-- DatabaseModule&#45;&gt;ProfileModule -->
<g id="edge1" class="edge">
<title>DatabaseModule&#45;&gt;ProfileModule</title>
<path fill="none" stroke="#000000" d="M286.1998,-122.1061C286.1998,-122.1061 286.1998,-140.991 286.1998,-140.991"/>
<polygon fill="#000000" stroke="#000000" points="282.6999,-140.9909 286.1998,-150.991 289.6999,-140.991 282.6999,-140.9909"/>
</g>
<!-- ProfileService  -->
<g id="node3" class="node">
<title>ProfileService </title>
<polygon fill="#fb8072" stroke="#000000" points="302.5781,-252 203.4219,-252 203.4219,-216 302.5781,-216 302.5781,-252"/>
<text text-anchor="middle" x="253" y="-229.8" font-family="Times,serif" font-size="14.00" fill="#000000">ProfileService </text>
</g>
<!-- ProfileModule&#45;&gt;ProfileService  -->
<g id="edge2" class="edge">
<title>ProfileModule&#45;&gt;ProfileService </title>
<path fill="none" stroke="#000000" stroke-dasharray="5,2" d="M253,-187.1061C253,-187.1061 253,-205.991 253,-205.991"/>
<polygon fill="#000000" stroke="#000000" points="249.5001,-205.9909 253,-215.991 256.5001,-205.991 249.5001,-205.9909"/>
</g>
<!-- ProfileService -->
<g id="node4" class="node">
<title>ProfileService</title>
<ellipse fill="#fdb462" stroke="#000000" cx="181" cy="-104" rx="66.0454" ry="18"/>
<text text-anchor="middle" x="181" y="-99.8" font-family="Times,serif" font-size="14.00" fill="#000000">ProfileService</text>
</g>
<!-- ProfileService&#45;&gt;ProfileModule -->
<g id="edge3" class="edge">
<title>ProfileService&#45;&gt;ProfileModule</title>
<path fill="none" stroke="#000000" d="M225.7238,-117.468C225.7238,-117.468 225.7238,-140.8642 225.7238,-140.8642"/>
<polygon fill="#000000" stroke="#000000" points="222.2239,-140.8641 225.7238,-150.8642 229.2239,-140.8642 222.2239,-140.8641"/>
</g>
</g>
</svg>
