<?xml version="1.0" encoding="UTF-8" standalone="no"?>
<!DOCTYPE svg PUBLIC "-//W3C//DTD SVG 1.1//EN"
 "http://www.w3.org/Graphics/SVG/1.1/DTD/svg11.dtd">
<!-- Generated by graphviz version 2.40.1 (20161225.0304)
 -->
<!-- Title: dependencies Pages: 1 -->
<svg width="504pt" height="284pt"
 viewBox="0.00 0.00 504.00 284.00" xmlns="http://www.w3.org/2000/svg" xmlns:xlink="http://www.w3.org/1999/xlink">
<g id="graph0" class="graph" transform="scale(1 1) rotate(0) translate(4 280)">
<title>dependencies</title>
<polygon fill="#ffffff" stroke="transparent" points="-4,4 -4,-280 500,-280 500,4 -4,4"/>
<text text-anchor="start" x="227.0091" y="-42.4" font-family="sans-serif" font-weight="bold" font-size="14.00" fill="#000000">Legend</text>
<polygon fill="#ffffb3" stroke="transparent" points="14,-10 14,-30 34,-30 34,-10 14,-10"/>
<text text-anchor="start" x="37.629" y="-15.4" font-family="sans-serif" font-size="14.00" fill="#000000"> &#160;Declarations</text>
<polygon fill="#8dd3c7" stroke="transparent" points="127,-10 127,-30 147,-30 147,-10 127,-10"/>
<text text-anchor="start" x="150.7251" y="-15.4" font-family="sans-serif" font-size="14.00" fill="#000000"> &#160;Module</text>
<polygon fill="#80b1d3" stroke="transparent" points="213,-10 213,-30 233,-30 233,-10 213,-10"/>
<text text-anchor="start" x="236.7812" y="-15.4" font-family="sans-serif" font-size="14.00" fill="#000000"> &#160;Bootstrap</text>
<polygon fill="#fdb462" stroke="transparent" points="310,-10 310,-30 330,-30 330,-10 310,-10"/>
<text text-anchor="start" x="333.6732" y="-15.4" font-family="sans-serif" font-size="14.00" fill="#000000"> &#160;Providers</text>
<polygon fill="#fb8072" stroke="transparent" points="406,-10 406,-30 426,-30 426,-10 406,-10"/>
<text text-anchor="start" x="429.7258" y="-15.4" font-family="sans-serif" font-size="14.00" fill="#000000"> &#160;Exports</text>
<g id="clust1" class="cluster">
<title>cluster_SiteNotificationModule</title>
<polygon fill="none" stroke="#000000" stroke-dasharray="1,5" points="63,-70 63,-268 433,-268 433,-70 63,-70"/>
</g>
<g id="clust3" class="cluster">
<title>cluster_SiteNotificationModule_imports</title>
<polygon fill="none" stroke="#000000" points="299,-78 299,-130 425,-130 425,-78 299,-78"/>
</g>
<g id="clust4" class="cluster">
<title>cluster_SiteNotificationModule_exports</title>
<polygon fill="none" stroke="#000000" points="178,-208 178,-260 344,-260 344,-208 178,-208"/>
</g>
<g id="clust6" class="cluster">
<title>cluster_SiteNotificationModule_providers</title>
<polygon fill="none" stroke="#000000" points="71,-78 71,-130 291,-130 291,-78 71,-78"/>
</g>
<!-- DatabaseModule -->
<g id="node1" class="node">
<title>DatabaseModule</title>
<polygon fill="#8dd3c7" stroke="#000000" points="417.3501,-122 414.3501,-126 393.3501,-126 390.3501,-122 306.6499,-122 306.6499,-86 417.3501,-86 417.3501,-122"/>
<text text-anchor="middle" x="362" y="-99.8" font-family="Times,serif" font-size="14.00" fill="#000000">DatabaseModule</text>
</g>
<!-- SiteNotificationModule -->
<g id="node2" class="node">
<title>SiteNotificationModule</title>
<polygon fill="#8dd3c7" stroke="#000000" points="335.4776,-187 332.4776,-191 311.4776,-191 308.4776,-187 186.5224,-187 186.5224,-151 335.4776,-151 335.4776,-187"/>
<text text-anchor="middle" x="261" y="-164.8" font-family="Times,serif" font-size="14.00" fill="#000000">SiteNotificationModule</text>
</g>
<!-- DatabaseModule&#45;&gt;SiteNotificationModule -->
<g id="edge1" class="edge">
<title>DatabaseModule&#45;&gt;SiteNotificationModule</title>
<path fill="none" stroke="#000000" d="M321.0319,-122.1061C321.0319,-122.1061 321.0319,-140.991 321.0319,-140.991"/>
<polygon fill="#000000" stroke="#000000" points="317.532,-140.9909 321.0319,-150.991 324.532,-140.991 317.532,-140.9909"/>
</g>
<!-- SiteNotificationService  -->
<g id="node3" class="node">
<title>SiteNotificationService </title>
<polygon fill="#fb8072" stroke="#000000" points="336.4054,-252 185.5946,-252 185.5946,-216 336.4054,-216 336.4054,-252"/>
<text text-anchor="middle" x="261" y="-229.8" font-family="Times,serif" font-size="14.00" fill="#000000">SiteNotificationService </text>
</g>
<!-- SiteNotificationModule&#45;&gt;SiteNotificationService  -->
<g id="edge2" class="edge">
<title>SiteNotificationModule&#45;&gt;SiteNotificationService </title>
<path fill="none" stroke="#000000" stroke-dasharray="5,2" d="M261,-187.1061C261,-187.1061 261,-205.991 261,-205.991"/>
<polygon fill="#000000" stroke="#000000" points="257.5001,-205.9909 261,-215.991 264.5001,-205.991 257.5001,-205.9909"/>
</g>
<!-- SiteNotificationService -->
<g id="node4" class="node">
<title>SiteNotificationService</title>
<ellipse fill="#fdb462" stroke="#000000" cx="181" cy="-104" rx="101.8554" ry="18"/>
<text text-anchor="middle" x="181" y="-99.8" font-family="Times,serif" font-size="14.00" fill="#000000">SiteNotificationService</text>
</g>
<!-- SiteNotificationService&#45;&gt;SiteNotificationModule -->
<g id="edge3" class="edge">
<title>SiteNotificationService&#45;&gt;SiteNotificationModule</title>
<path fill="none" stroke="#000000" d="M234.5944,-119.4041C234.5944,-119.4041 234.5944,-140.9397 234.5944,-140.9397"/>
<polygon fill="#000000" stroke="#000000" points="231.0945,-140.9397 234.5944,-150.9397 238.0945,-140.9398 231.0945,-140.9397"/>
</g>
</g>
</svg>
