<?xml version="1.0" encoding="UTF-8" standalone="no"?>
<!DOCTYPE svg PUBLIC "-//W3C//DTD SVG 1.1//EN"
 "http://www.w3.org/Graphics/SVG/1.1/DTD/svg11.dtd">
<!-- Generated by graphviz version 2.40.1 (20161225.0304)
 -->
<!-- Title: dependencies Pages: 1 -->
<svg width="504pt" height="284pt"
 viewBox="0.00 0.00 504.00 284.00" xmlns="http://www.w3.org/2000/svg" xmlns:xlink="http://www.w3.org/1999/xlink">
<g id="graph0" class="graph" transform="scale(1 1) rotate(0) translate(4 280)">
<title>dependencies</title>
<polygon fill="#ffffff" stroke="transparent" points="-4,4 -4,-280 500,-280 500,4 -4,4"/>
<text text-anchor="start" x="227.0091" y="-42.4" font-family="sans-serif" font-weight="bold" font-size="14.00" fill="#000000">Legend</text>
<polygon fill="#ffffb3" stroke="transparent" points="14,-10 14,-30 34,-30 34,-10 14,-10"/>
<text text-anchor="start" x="37.629" y="-15.4" font-family="sans-serif" font-size="14.00" fill="#000000"> &#160;Declarations</text>
<polygon fill="#8dd3c7" stroke="transparent" points="127,-10 127,-30 147,-30 147,-10 127,-10"/>
<text text-anchor="start" x="150.7251" y="-15.4" font-family="sans-serif" font-size="14.00" fill="#000000"> &#160;Module</text>
<polygon fill="#80b1d3" stroke="transparent" points="213,-10 213,-30 233,-30 233,-10 213,-10"/>
<text text-anchor="start" x="236.7812" y="-15.4" font-family="sans-serif" font-size="14.00" fill="#000000"> &#160;Bootstrap</text>
<polygon fill="#fdb462" stroke="transparent" points="310,-10 310,-30 330,-30 330,-10 310,-10"/>
<text text-anchor="start" x="333.6732" y="-15.4" font-family="sans-serif" font-size="14.00" fill="#000000"> &#160;Providers</text>
<polygon fill="#fb8072" stroke="transparent" points="406,-10 406,-30 426,-30 426,-10 406,-10"/>
<text text-anchor="start" x="429.7258" y="-15.4" font-family="sans-serif" font-size="14.00" fill="#000000"> &#160;Exports</text>
<g id="clust1" class="cluster">
<title>cluster_LogExamModule</title>
<polygon fill="none" stroke="#000000" stroke-dasharray="1,5" points="87,-70 87,-268 409,-268 409,-70 87,-70"/>
</g>
<g id="clust3" class="cluster">
<title>cluster_LogExamModule_imports</title>
<polygon fill="none" stroke="#000000" points="275,-78 275,-130 401,-130 401,-78 275,-78"/>
</g>
<g id="clust4" class="cluster">
<title>cluster_LogExamModule_exports</title>
<polygon fill="none" stroke="#000000" points="192,-208 192,-260 324,-260 324,-208 192,-208"/>
</g>
<g id="clust6" class="cluster">
<title>cluster_LogExamModule_providers</title>
<polygon fill="none" stroke="#000000" points="95,-78 95,-130 267,-130 267,-78 95,-78"/>
</g>
<!-- DatabaseModule -->
<g id="node1" class="node">
<title>DatabaseModule</title>
<polygon fill="#8dd3c7" stroke="#000000" points="393.3501,-122 390.3501,-126 369.3501,-126 366.3501,-122 282.6499,-122 282.6499,-86 393.3501,-86 393.3501,-122"/>
<text text-anchor="middle" x="338" y="-99.8" font-family="Times,serif" font-size="14.00" fill="#000000">DatabaseModule</text>
</g>
<!-- LogExamModule -->
<g id="node2" class="node">
<title>LogExamModule</title>
<polygon fill="#8dd3c7" stroke="#000000" points="315.2605,-187 312.2605,-191 291.2605,-191 288.2605,-187 200.7395,-187 200.7395,-151 315.2605,-151 315.2605,-187"/>
<text text-anchor="middle" x="258" y="-164.8" font-family="Times,serif" font-size="14.00" fill="#000000">LogExamModule</text>
</g>
<!-- DatabaseModule&#45;&gt;LogExamModule -->
<g id="edge1" class="edge">
<title>DatabaseModule&#45;&gt;LogExamModule</title>
<path fill="none" stroke="#000000" d="M298.9776,-122.1061C298.9776,-122.1061 298.9776,-140.991 298.9776,-140.991"/>
<polygon fill="#000000" stroke="#000000" points="295.4776,-140.9909 298.9776,-150.991 302.4776,-140.991 295.4776,-140.9909"/>
</g>
<!-- LogExamService  -->
<g id="node3" class="node">
<title>LogExamService </title>
<polygon fill="#fb8072" stroke="#000000" points="316.1884,-252 199.8116,-252 199.8116,-216 316.1884,-216 316.1884,-252"/>
<text text-anchor="middle" x="258" y="-229.8" font-family="Times,serif" font-size="14.00" fill="#000000">LogExamService </text>
</g>
<!-- LogExamModule&#45;&gt;LogExamService  -->
<g id="edge2" class="edge">
<title>LogExamModule&#45;&gt;LogExamService </title>
<path fill="none" stroke="#000000" stroke-dasharray="5,2" d="M258,-187.1061C258,-187.1061 258,-205.991 258,-205.991"/>
<polygon fill="#000000" stroke="#000000" points="254.5001,-205.9909 258,-215.991 261.5001,-205.991 254.5001,-205.9909"/>
</g>
<!-- LogExamService -->
<g id="node4" class="node">
<title>LogExamService</title>
<ellipse fill="#fdb462" stroke="#000000" cx="181" cy="-104" rx="78.1501" ry="18"/>
<text text-anchor="middle" x="181" y="-99.8" font-family="Times,serif" font-size="14.00" fill="#000000">LogExamService</text>
</g>
<!-- LogExamService&#45;&gt;LogExamModule -->
<g id="edge3" class="edge">
<title>LogExamService&#45;&gt;LogExamModule</title>
<path fill="none" stroke="#000000" d="M229.8475,-118.104C229.8475,-118.104 229.8475,-140.7209 229.8475,-140.7209"/>
<polygon fill="#000000" stroke="#000000" points="226.3476,-140.7209 229.8475,-150.7209 233.3476,-140.7209 226.3476,-140.7209"/>
</g>
</g>
</svg>
