<?xml version="1.0" encoding="UTF-8" standalone="no"?>
<!DOCTYPE svg PUBLIC "-//W3C//DTD SVG 1.1//EN"
 "http://www.w3.org/Graphics/SVG/1.1/DTD/svg11.dtd">
<!-- Generated by graphviz version 2.40.1 (20161225.0304)
 -->
<!-- Title: dependencies Pages: 1 -->
<svg width="504pt" height="284pt"
 viewBox="0.00 0.00 504.00 284.00" xmlns="http://www.w3.org/2000/svg" xmlns:xlink="http://www.w3.org/1999/xlink">
<g id="graph0" class="graph" transform="scale(1 1) rotate(0) translate(4 280)">
<title>dependencies</title>
<polygon fill="#ffffff" stroke="transparent" points="-4,4 -4,-280 500,-280 500,4 -4,4"/>
<text text-anchor="start" x="227.0091" y="-42.4" font-family="sans-serif" font-weight="bold" font-size="14.00" fill="#000000">Legend</text>
<polygon fill="#ffffb3" stroke="transparent" points="14,-10 14,-30 34,-30 34,-10 14,-10"/>
<text text-anchor="start" x="37.629" y="-15.4" font-family="sans-serif" font-size="14.00" fill="#000000"> &#160;Declarations</text>
<polygon fill="#8dd3c7" stroke="transparent" points="127,-10 127,-30 147,-30 147,-10 127,-10"/>
<text text-anchor="start" x="150.7251" y="-15.4" font-family="sans-serif" font-size="14.00" fill="#000000"> &#160;Module</text>
<polygon fill="#80b1d3" stroke="transparent" points="213,-10 213,-30 233,-30 233,-10 213,-10"/>
<text text-anchor="start" x="236.7812" y="-15.4" font-family="sans-serif" font-size="14.00" fill="#000000"> &#160;Bootstrap</text>
<polygon fill="#fdb462" stroke="transparent" points="310,-10 310,-30 330,-30 330,-10 310,-10"/>
<text text-anchor="start" x="333.6732" y="-15.4" font-family="sans-serif" font-size="14.00" fill="#000000"> &#160;Providers</text>
<polygon fill="#fb8072" stroke="transparent" points="406,-10 406,-30 426,-30 426,-10 406,-10"/>
<text text-anchor="start" x="429.7258" y="-15.4" font-family="sans-serif" font-size="14.00" fill="#000000"> &#160;Exports</text>
<g id="clust1" class="cluster">
<title>cluster_ExamModule</title>
<polygon fill="none" stroke="#000000" stroke-dasharray="1,5" points="28,-70 28,-268 468,-268 468,-70 28,-70"/>
</g>
<g id="clust3" class="cluster">
<title>cluster_ExamModule_imports</title>
<polygon fill="none" stroke="#000000" points="334,-78 334,-130 460,-130 460,-78 334,-78"/>
</g>
<g id="clust4" class="cluster">
<title>cluster_ExamModule_exports</title>
<polygon fill="none" stroke="#000000" points="141,-208 141,-260 367,-260 367,-208 141,-208"/>
</g>
<g id="clust6" class="cluster">
<title>cluster_ExamModule_providers</title>
<polygon fill="none" stroke="#000000" points="36,-78 36,-130 326,-130 326,-78 36,-78"/>
</g>
<!-- DatabaseModule -->
<g id="node1" class="node">
<title>DatabaseModule</title>
<polygon fill="#8dd3c7" stroke="#000000" points="452.3501,-122 449.3501,-126 428.3501,-126 425.3501,-122 341.6499,-122 341.6499,-86 452.3501,-86 452.3501,-122"/>
<text text-anchor="middle" x="397" y="-99.8" font-family="Times,serif" font-size="14.00" fill="#000000">DatabaseModule</text>
</g>
<!-- ExamModule -->
<g id="node2" class="node">
<title>ExamModule</title>
<polygon fill="#8dd3c7" stroke="#000000" points="299.2078,-187 296.2078,-191 275.2078,-191 272.2078,-187 206.7922,-187 206.7922,-151 299.2078,-151 299.2078,-187"/>
<text text-anchor="middle" x="253" y="-164.8" font-family="Times,serif" font-size="14.00" fill="#000000">ExamModule</text>
</g>
<!-- DatabaseModule&#45;&gt;ExamModule -->
<g id="edge1" class="edge">
<title>DatabaseModule&#45;&gt;ExamModule</title>
<path fill="none" stroke="#000000" d="M350.2898,-122.1061C350.2898,-141.3391 350.2898,-169 350.2898,-169 350.2898,-169 309.3654,-169 309.3654,-169"/>
<polygon fill="#000000" stroke="#000000" points="309.3654,-165.5001 299.3654,-169 309.3654,-172.5001 309.3654,-165.5001"/>
</g>
<!-- CreateService  -->
<g id="node3" class="node">
<title>CreateService </title>
<polygon fill="#fb8072" stroke="#000000" points="359.0092,-252 260.9908,-252 260.9908,-216 359.0092,-216 359.0092,-252"/>
<text text-anchor="middle" x="310" y="-229.8" font-family="Times,serif" font-size="14.00" fill="#000000">CreateService </text>
</g>
<!-- ExamModule&#45;&gt;CreateService  -->
<g id="edge2" class="edge">
<title>ExamModule&#45;&gt;CreateService </title>
<path fill="none" stroke="#000000" stroke-dasharray="5,2" d="M280.0496,-187.1061C280.0496,-187.1061 280.0496,-205.991 280.0496,-205.991"/>
<polygon fill="#000000" stroke="#000000" points="276.5497,-205.9909 280.0496,-215.991 283.5497,-205.991 276.5497,-205.9909"/>
</g>
<!-- ExamService  -->
<g id="node4" class="node">
<title>ExamService </title>
<polygon fill="#fb8072" stroke="#000000" points="243.1355,-252 148.8645,-252 148.8645,-216 243.1355,-216 243.1355,-252"/>
<text text-anchor="middle" x="196" y="-229.8" font-family="Times,serif" font-size="14.00" fill="#000000">ExamService </text>
</g>
<!-- ExamModule&#45;&gt;ExamService  -->
<g id="edge3" class="edge">
<title>ExamModule&#45;&gt;ExamService </title>
<path fill="none" stroke="#000000" stroke-dasharray="5,2" d="M224.982,-187.1061C224.982,-187.1061 224.982,-205.991 224.982,-205.991"/>
<polygon fill="#000000" stroke="#000000" points="221.482,-205.9909 224.982,-215.991 228.482,-205.991 221.482,-205.9909"/>
</g>
<!-- CreateService -->
<g id="node5" class="node">
<title>CreateService</title>
<ellipse fill="#fdb462" stroke="#000000" cx="253" cy="-104" rx="65.382" ry="18"/>
<text text-anchor="middle" x="253" y="-99.8" font-family="Times,serif" font-size="14.00" fill="#000000">CreateService</text>
</g>
<!-- CreateService&#45;&gt;ExamModule -->
<g id="edge4" class="edge">
<title>CreateService&#45;&gt;ExamModule</title>
<path fill="none" stroke="#000000" d="M253,-122.1061C253,-122.1061 253,-140.991 253,-140.991"/>
<polygon fill="#000000" stroke="#000000" points="249.5001,-140.9909 253,-150.991 256.5001,-140.991 249.5001,-140.9909"/>
</g>
<!-- ExamService -->
<g id="node6" class="node">
<title>ExamService</title>
<ellipse fill="#fdb462" stroke="#000000" cx="107" cy="-104" rx="62.5373" ry="18"/>
<text text-anchor="middle" x="107" y="-99.8" font-family="Times,serif" font-size="14.00" fill="#000000">ExamService</text>
</g>
<!-- ExamService&#45;&gt;ExamModule -->
<g id="edge5" class="edge">
<title>ExamService&#45;&gt;ExamModule</title>
<path fill="none" stroke="#000000" d="M159.2255,-114.1563C159.2255,-132.4375 159.2255,-169 159.2255,-169 159.2255,-169 196.6622,-169 196.6622,-169"/>
<polygon fill="#000000" stroke="#000000" points="196.6622,-172.5001 206.6622,-169 196.6622,-165.5001 196.6622,-172.5001"/>
</g>
</g>
</svg>
