<?xml version="1.0" encoding="UTF-8" standalone="no"?>
<!DOCTYPE svg PUBLIC "-//W3C//DTD SVG 1.1//EN"
 "http://www.w3.org/Graphics/SVG/1.1/DTD/svg11.dtd">
<!-- Generated by graphviz version 2.40.1 (20161225.0304)
 -->
<!-- Title: dependencies Pages: 1 -->
<svg width="504pt" height="284pt"
 viewBox="0.00 0.00 504.00 284.00" xmlns="http://www.w3.org/2000/svg" xmlns:xlink="http://www.w3.org/1999/xlink">
<g id="graph0" class="graph" transform="scale(1 1) rotate(0) translate(4 280)">
<title>dependencies</title>
<polygon fill="#ffffff" stroke="transparent" points="-4,4 -4,-280 500,-280 500,4 -4,4"/>
<text text-anchor="start" x="227.0091" y="-42.4" font-family="sans-serif" font-weight="bold" font-size="14.00" fill="#000000">Legend</text>
<polygon fill="#ffffb3" stroke="transparent" points="14,-10 14,-30 34,-30 34,-10 14,-10"/>
<text text-anchor="start" x="37.629" y="-15.4" font-family="sans-serif" font-size="14.00" fill="#000000"> &#160;Declarations</text>
<polygon fill="#8dd3c7" stroke="transparent" points="127,-10 127,-30 147,-30 147,-10 127,-10"/>
<text text-anchor="start" x="150.7251" y="-15.4" font-family="sans-serif" font-size="14.00" fill="#000000"> &#160;Module</text>
<polygon fill="#80b1d3" stroke="transparent" points="213,-10 213,-30 233,-30 233,-10 213,-10"/>
<text text-anchor="start" x="236.7812" y="-15.4" font-family="sans-serif" font-size="14.00" fill="#000000"> &#160;Bootstrap</text>
<polygon fill="#fdb462" stroke="transparent" points="310,-10 310,-30 330,-30 330,-10 310,-10"/>
<text text-anchor="start" x="333.6732" y="-15.4" font-family="sans-serif" font-size="14.00" fill="#000000"> &#160;Providers</text>
<polygon fill="#fb8072" stroke="transparent" points="406,-10 406,-30 426,-30 426,-10 406,-10"/>
<text text-anchor="start" x="429.7258" y="-15.4" font-family="sans-serif" font-size="14.00" fill="#000000"> &#160;Exports</text>
<g id="clust1" class="cluster">
<title>cluster_PlanModule</title>
<polygon fill="none" stroke="#000000" stroke-dasharray="1,5" points="108,-70 108,-268 388,-268 388,-70 108,-70"/>
</g>
<g id="clust3" class="cluster">
<title>cluster_PlanModule_imports</title>
<polygon fill="none" stroke="#000000" points="254,-78 254,-130 380,-130 380,-78 254,-78"/>
</g>
<g id="clust4" class="cluster">
<title>cluster_PlanModule_exports</title>
<polygon fill="none" stroke="#000000" points="198,-208 198,-260 300,-260 300,-208 198,-208"/>
</g>
<g id="clust6" class="cluster">
<title>cluster_PlanModule_providers</title>
<polygon fill="none" stroke="#000000" points="116,-78 116,-130 246,-130 246,-78 116,-78"/>
</g>
<!-- DatabaseModule -->
<g id="node1" class="node">
<title>DatabaseModule</title>
<polygon fill="#8dd3c7" stroke="#000000" points="372.3501,-122 369.3501,-126 348.3501,-126 345.3501,-122 261.6499,-122 261.6499,-86 372.3501,-86 372.3501,-122"/>
<text text-anchor="middle" x="317" y="-99.8" font-family="Times,serif" font-size="14.00" fill="#000000">DatabaseModule</text>
</g>
<!-- PlanModule -->
<g id="node2" class="node">
<title>PlanModule</title>
<polygon fill="#8dd3c7" stroke="#000000" points="291.4387,-187 288.4387,-191 267.4387,-191 264.4387,-187 206.5613,-187 206.5613,-151 291.4387,-151 291.4387,-187"/>
<text text-anchor="middle" x="249" y="-164.8" font-family="Times,serif" font-size="14.00" fill="#000000">PlanModule</text>
</g>
<!-- DatabaseModule&#45;&gt;PlanModule -->
<g id="edge1" class="edge">
<title>DatabaseModule&#45;&gt;PlanModule</title>
<path fill="none" stroke="#000000" d="M276.3969,-122.1061C276.3969,-122.1061 276.3969,-140.991 276.3969,-140.991"/>
<polygon fill="#000000" stroke="#000000" points="272.897,-140.9909 276.3969,-150.991 279.897,-140.991 272.897,-140.9909"/>
</g>
<!-- PlanService  -->
<g id="node3" class="node">
<title>PlanService </title>
<polygon fill="#fb8072" stroke="#000000" points="292.3662,-252 205.6338,-252 205.6338,-216 292.3662,-216 292.3662,-252"/>
<text text-anchor="middle" x="249" y="-229.8" font-family="Times,serif" font-size="14.00" fill="#000000">PlanService </text>
</g>
<!-- PlanModule&#45;&gt;PlanService  -->
<g id="edge2" class="edge">
<title>PlanModule&#45;&gt;PlanService </title>
<path fill="none" stroke="#000000" stroke-dasharray="5,2" d="M249,-187.1061C249,-187.1061 249,-205.991 249,-205.991"/>
<polygon fill="#000000" stroke="#000000" points="245.5001,-205.9909 249,-215.991 252.5001,-205.991 245.5001,-205.9909"/>
</g>
<!-- PlanService -->
<g id="node4" class="node">
<title>PlanService</title>
<ellipse fill="#fdb462" stroke="#000000" cx="181" cy="-104" rx="57.3185" ry="18"/>
<text text-anchor="middle" x="181" y="-99.8" font-family="Times,serif" font-size="14.00" fill="#000000">PlanService</text>
</g>
<!-- PlanService&#45;&gt;PlanModule -->
<g id="edge3" class="edge">
<title>PlanService&#45;&gt;PlanModule</title>
<path fill="none" stroke="#000000" d="M222.4701,-116.5327C222.4701,-116.5327 222.4701,-140.8507 222.4701,-140.8507"/>
<polygon fill="#000000" stroke="#000000" points="218.9702,-140.8506 222.4701,-150.8507 225.9702,-140.8507 218.9702,-140.8506"/>
</g>
</g>
</svg>
