<?xml version="1.0" encoding="UTF-8" standalone="no"?>
<!DOCTYPE svg PUBLIC "-//W3C//DTD SVG 1.1//EN"
 "http://www.w3.org/Graphics/SVG/1.1/DTD/svg11.dtd">
<!-- Generated by graphviz version 2.40.1 (20161225.0304)
 -->
<!-- Title: dependencies Pages: 1 -->
<svg width="504pt" height="284pt"
 viewBox="0.00 0.00 504.00 284.00" xmlns="http://www.w3.org/2000/svg" xmlns:xlink="http://www.w3.org/1999/xlink">
<g id="graph0" class="graph" transform="scale(1 1) rotate(0) translate(4 280)">
<title>dependencies</title>
<polygon fill="#ffffff" stroke="transparent" points="-4,4 -4,-280 500,-280 500,4 -4,4"/>
<text text-anchor="start" x="227.0091" y="-42.4" font-family="sans-serif" font-weight="bold" font-size="14.00" fill="#000000">Legend</text>
<polygon fill="#ffffb3" stroke="transparent" points="14,-10 14,-30 34,-30 34,-10 14,-10"/>
<text text-anchor="start" x="37.629" y="-15.4" font-family="sans-serif" font-size="14.00" fill="#000000"> &#160;Declarations</text>
<polygon fill="#8dd3c7" stroke="transparent" points="127,-10 127,-30 147,-30 147,-10 127,-10"/>
<text text-anchor="start" x="150.7251" y="-15.4" font-family="sans-serif" font-size="14.00" fill="#000000"> &#160;Module</text>
<polygon fill="#80b1d3" stroke="transparent" points="213,-10 213,-30 233,-30 233,-10 213,-10"/>
<text text-anchor="start" x="236.7812" y="-15.4" font-family="sans-serif" font-size="14.00" fill="#000000"> &#160;Bootstrap</text>
<polygon fill="#fdb462" stroke="transparent" points="310,-10 310,-30 330,-30 330,-10 310,-10"/>
<text text-anchor="start" x="333.6732" y="-15.4" font-family="sans-serif" font-size="14.00" fill="#000000"> &#160;Providers</text>
<polygon fill="#fb8072" stroke="transparent" points="406,-10 406,-30 426,-30 426,-10 406,-10"/>
<text text-anchor="start" x="429.7258" y="-15.4" font-family="sans-serif" font-size="14.00" fill="#000000"> &#160;Exports</text>
<g id="clust1" class="cluster">
<title>cluster_SiteRuleModule</title>
<polygon fill="none" stroke="#000000" stroke-dasharray="1,5" points="92,-70 92,-268 404,-268 404,-70 92,-70"/>
</g>
<g id="clust3" class="cluster">
<title>cluster_SiteRuleModule_imports</title>
<polygon fill="none" stroke="#000000" points="270,-78 270,-130 396,-130 396,-78 270,-78"/>
</g>
<g id="clust4" class="cluster">
<title>cluster_SiteRuleModule_exports</title>
<polygon fill="none" stroke="#000000" points="194,-208 194,-260 320,-260 320,-208 194,-208"/>
</g>
<g id="clust6" class="cluster">
<title>cluster_SiteRuleModule_providers</title>
<polygon fill="none" stroke="#000000" points="100,-78 100,-130 262,-130 262,-78 100,-78"/>
</g>
<!-- DatabaseModule -->
<g id="node1" class="node">
<title>DatabaseModule</title>
<polygon fill="#8dd3c7" stroke="#000000" points="388.3501,-122 385.3501,-126 364.3501,-126 361.3501,-122 277.6499,-122 277.6499,-86 388.3501,-86 388.3501,-122"/>
<text text-anchor="middle" x="333" y="-99.8" font-family="Times,serif" font-size="14.00" fill="#000000">DatabaseModule</text>
</g>
<!-- SiteRuleModule -->
<g id="node2" class="node">
<title>SiteRuleModule</title>
<polygon fill="#8dd3c7" stroke="#000000" points="310.7702,-187 307.7702,-191 286.7702,-191 283.7702,-187 203.2298,-187 203.2298,-151 310.7702,-151 310.7702,-187"/>
<text text-anchor="middle" x="257" y="-164.8" font-family="Times,serif" font-size="14.00" fill="#000000">SiteRuleModule</text>
</g>
<!-- DatabaseModule&#45;&gt;SiteRuleModule -->
<g id="edge1" class="edge">
<title>DatabaseModule&#45;&gt;SiteRuleModule</title>
<path fill="none" stroke="#000000" d="M294.23,-122.1061C294.23,-122.1061 294.23,-140.991 294.23,-140.991"/>
<polygon fill="#000000" stroke="#000000" points="290.7301,-140.9909 294.23,-150.991 297.7301,-140.991 290.7301,-140.9909"/>
</g>
<!-- SiteRuleService  -->
<g id="node3" class="node">
<title>SiteRuleService </title>
<polygon fill="#fb8072" stroke="#000000" points="311.6982,-252 202.3018,-252 202.3018,-216 311.6982,-216 311.6982,-252"/>
<text text-anchor="middle" x="257" y="-229.8" font-family="Times,serif" font-size="14.00" fill="#000000">SiteRuleService </text>
</g>
<!-- SiteRuleModule&#45;&gt;SiteRuleService  -->
<g id="edge2" class="edge">
<title>SiteRuleModule&#45;&gt;SiteRuleService </title>
<path fill="none" stroke="#000000" stroke-dasharray="5,2" d="M257,-187.1061C257,-187.1061 257,-205.991 257,-205.991"/>
<polygon fill="#000000" stroke="#000000" points="253.5001,-205.9909 257,-215.991 260.5001,-205.991 253.5001,-205.9909"/>
</g>
<!-- SiteRuleService -->
<g id="node4" class="node">
<title>SiteRuleService</title>
<ellipse fill="#fdb462" stroke="#000000" cx="181" cy="-104" rx="73.0074" ry="18"/>
<text text-anchor="middle" x="181" y="-99.8" font-family="Times,serif" font-size="14.00" fill="#000000">SiteRuleService</text>
</g>
<!-- SiteRuleService&#45;&gt;SiteRuleModule -->
<g id="edge3" class="edge">
<title>SiteRuleService&#45;&gt;SiteRuleModule</title>
<path fill="none" stroke="#000000" d="M228.6842,-117.7848C228.6842,-117.7848 228.6842,-140.5475 228.6842,-140.5475"/>
<polygon fill="#000000" stroke="#000000" points="225.1843,-140.5474 228.6842,-150.5475 232.1843,-140.5475 225.1843,-140.5474"/>
</g>
</g>
</svg>
